<svg width="114" height="114" viewBox="0 0 114 114" fill="none" xmlns="http://www.w3.org/2000/svg">
<path d="M56.9487 16.4501C55.0031 16.4499 53.3196 17.5744 52.5017 19.2057L52.8923 19.4116C54.0054 19.9042 55.4549 20.1825 56.9487 20.1825C58.4293 20.1828 59.8662 19.9095 60.9999 19.4127L61.3764 19.1658C60.5512 17.5565 58.8783 16.4502 56.9487 16.4501Z" fill="#B99362"/>
<path d="M61.3672 20.1575C60.125 20.7088 58.5559 21.0123 56.9486 21.012C55.3417 21.012 53.7728 20.7088 52.5306 20.1575L52.1887 19.9774C52.0488 20.4364 51.9719 20.9225 51.9723 21.4266C51.9723 22.6624 52.4379 23.84 53.2487 24.7447L52.8015 24.7444C52.5725 24.7446 52.3872 24.93 52.3869 25.159L52.3866 26.8179C52.3869 26.9278 52.4303 27.0334 52.508 27.1111C52.586 27.1891 52.6915 27.2325 52.8015 27.2328L54.0634 27.2325L54.8757 46.1378C54.885 46.3601 55.0678 46.5345 55.2897 46.5349L55.7047 46.5345V47.8465C55.7047 48.1602 55.827 48.4562 56.0492 48.6784C56.2712 48.9004 56.5668 49.023 56.8812 49.023L57.0163 49.0227C57.3307 49.0227 57.626 48.9004 57.848 48.6785C58.0702 48.4562 58.1928 48.1606 58.1925 47.8465L58.1928 46.5349L58.6077 46.5345C58.7218 46.5349 58.8256 46.4885 58.901 46.4131C58.9719 46.3422 59.0174 46.2457 59.0218 46.1375L59.8338 27.2325H61.0959C61.2059 27.2328 61.3114 27.1888 61.3891 27.1111C61.4668 27.0334 61.5108 26.9279 61.5105 26.8179L61.5102 25.159C61.5102 24.9297 61.3249 24.7444 61.0956 24.7444H60.6458C61.4572 23.8397 61.9252 22.6626 61.9252 21.427C61.9254 20.9112 61.8463 20.4138 61.6999 19.9455L61.4261 20.125C61.4071 20.1375 61.3874 20.1484 61.3672 20.1575ZM57.3632 47.8465C57.3635 48.0321 57.2019 48.1937 57.0163 48.1934H56.8814C56.7884 48.1937 56.7014 48.1576 56.6357 48.0919C56.57 48.0263 56.5339 47.9392 56.5339 47.8465V46.5345L57.3635 46.5348L57.3632 47.8465ZM57.7779 31.7945C57.7779 31.9088 57.7315 32.0126 57.6565 32.0877C57.5817 32.1625 57.4779 32.2088 57.3632 32.2091L56.534 32.2091C56.3052 32.2091 56.1196 32.0235 56.1193 31.7945C56.1193 31.5651 56.3049 31.3795 56.534 31.3798H57.3632C57.5925 31.3798 57.7782 31.5655 57.7779 31.7945ZM57.7782 30.1356C57.7782 30.25 57.7318 30.3538 57.6568 30.4288C57.5817 30.5039 57.4779 30.5502 57.3636 30.5502H56.5343C56.305 30.5502 56.1196 30.3649 56.1196 30.1356C56.1196 29.9062 56.305 29.7209 56.5343 29.721H57.3636C57.5928 29.721 57.7782 29.9063 57.7782 30.1356ZM58.1928 28.4764C58.1925 28.5911 58.1465 28.6946 58.0714 28.7696C57.9963 28.8447 57.8926 28.8911 57.7782 28.8911L56.1193 28.8914C55.89 28.8914 55.7044 28.7058 55.7047 28.4767C55.7047 28.2474 55.89 28.0621 56.1193 28.0621L57.7782 28.0618C58.0072 28.0621 58.1925 28.2474 58.1928 28.4764ZM60.6813 26.4032H53.2159L53.2162 25.5736H60.681L60.6813 26.4032Z" fill="#B99362"/>
<path d="M60.3423 64.1281L82.5609 41.6323C83.8943 41.8245 85.306 41.3461 86.3616 40.2909C88.1532 38.4991 88.2241 35.8675 86.5263 34.1697C84.828 32.4716 82.1968 32.5427 80.405 34.3343C79.3496 35.3897 78.8708 36.8002 79.0636 38.135L56.5442 60.3767L34.0241 38.1354C34.2171 36.8008 33.7382 35.3901 32.6828 34.3349C31.7873 33.4395 30.6461 32.9464 29.4696 32.9464C28.3834 32.9464 27.3505 33.381 26.5612 34.1701C25.7101 35.0214 25.2776 36.137 25.3441 37.3115C25.4056 38.4036 25.8966 39.4618 26.7259 40.2913C27.6196 41.1848 28.7591 41.677 29.9349 41.677C30.1351 41.677 30.3329 41.6626 30.528 41.634L52.746 64.1281L26.1979 90.3498C25.6436 90.9039 25.3386 91.6407 25.3386 92.4243C25.3386 93.2079 25.6438 93.9445 26.1977 94.4986C26.7517 95.0525 27.4883 95.3577 28.272 95.3579C29.0558 95.3579 29.7926 95.0527 30.3527 94.4925L56.5442 67.9736L82.743 94.498C83.2969 95.0521 84.0337 95.3573 84.8173 95.3575C85.6011 95.3575 86.3377 95.0523 86.8919 94.4982C88.0356 93.3543 88.0358 91.4932 86.8858 90.3432L60.3423 64.1281Z" fill="#B99362"/>
<path d="M76.2321 60.7119C74.5347 60.4779 73.604 61.2773 72.8386 62.0427C72.0735 62.8078 70.1432 66.8008 74.4028 70.7925C78.6615 74.7863 82.5549 70.4931 82.5549 70.4931C82.5549 70.4931 83.9203 69.1316 83.0692 66.3193C82.3146 63.8274 90.0639 64.5209 88.9767 62.0755C88.6423 61.323 86.5655 61.7124 85.4836 61.1103L84.2182 62.3756L81.884 60.0414L83.7879 58.1375C83.6575 58.0491 83.5231 57.9444 83.3858 57.8169C82.4212 56.9181 84.9838 54.955 83.8855 53.9905C82.7869 53.0262 80.6574 56.1543 79.6263 58.2497C78.594 60.3458 77.9286 60.9443 76.2321 60.7119ZM78.029 70.9597C77.8357 70.7665 77.8358 70.4547 78.0285 70.2619C78.2218 70.0687 78.5341 70.0682 78.7273 70.2614C78.9206 70.4547 78.9201 70.767 78.7268 70.9602C78.5341 71.1531 78.2223 71.1531 78.029 70.9597ZM80.3997 69.9878C80.207 70.1805 79.8937 70.18 79.7005 69.9867C79.5087 69.7949 79.5081 69.4817 79.7009 69.2889C79.8937 69.0961 80.2069 69.0966 80.3987 69.2885C80.5919 69.4817 80.5925 69.795 80.3997 69.9878ZM81.7722 66.9179C82.0476 67.1934 82.047 67.6402 81.7715 67.9157C81.4958 68.1914 81.0495 68.1916 80.774 67.9161C80.4978 67.6399 80.4978 67.1934 80.7735 66.9177C81.049 66.6422 81.496 66.6418 81.7722 66.9179ZM80.0918 61.1107L82.7874 63.8063L81.6713 64.9223L78.9758 62.2268L80.0918 61.1107ZM77.7217 63.4809L80.4172 66.1765L79.3012 67.2925L76.6056 64.597L77.7217 63.4809Z" fill="#B99362"/>
<path d="M97.9955 42.7989C97.7938 42.5973 97.4656 42.5968 97.2633 42.7992C97.0616 43.0008 97.0616 43.3295 97.2633 43.5311C97.3537 43.6216 97.4712 43.6703 97.5902 43.6782L97.6581 44.1784L96.9263 44.2774C96.9263 44.2774 96.9244 45.0863 96.715 45.8086L82.5131 60.0106L84.2488 61.7463L98.2825 47.7126C98.5959 47.6475 98.9203 47.6525 99.1555 47.8385L101.253 45.7414L103.112 45.1215C103.409 45.023 103.642 44.6897 103.636 44.3785L103.625 43.9427C103.619 43.6314 103.364 43.4125 103.054 43.4536L101.728 43.6323L101.655 43.0308C101.696 43.0079 101.735 42.9799 101.77 42.945C101.972 42.7432 101.973 42.4156 101.771 42.213C101.569 42.0112 101.24 42.0112 101.038 42.213C100.836 42.4152 100.837 42.7433 101.039 42.9451C101.133 43.0392 101.254 43.0882 101.378 43.0946L101.448 43.6698L100.362 43.8149L100.3 43.2949C100.363 43.2703 100.423 43.2324 100.475 43.1807C100.677 42.9788 100.677 42.6504 100.474 42.4475C100.272 42.2459 99.9445 42.2467 99.7426 42.4486C99.5405 42.6508 99.54 42.978 99.7416 43.1796C99.8201 43.2581 99.9164 43.3049 100.018 43.3227L100.081 43.8513L99.1491 43.9771L99.0873 43.4671C99.1314 43.4441 99.1722 43.4153 99.2091 43.3784C99.4107 43.1768 99.4119 42.8489 99.2094 42.6464C99.0075 42.4445 98.6786 42.4447 98.477 42.6463C98.2749 42.8484 98.2751 43.1768 98.477 43.3787C98.5691 43.4709 98.6887 43.5194 98.8104 43.5271L98.8684 44.0139L97.9365 44.1392L97.8667 43.619C97.9121 43.5956 97.9561 43.5669 97.9947 43.5284C98.1976 43.328 98.1973 43.0007 97.9955 42.7989ZM97.4636 43.3308C97.3723 43.2395 97.3718 43.0901 97.4634 42.9984C97.5554 42.9064 97.7049 42.9061 97.7966 42.9978C97.8879 43.0891 97.8885 43.2387 97.7961 43.3311C97.704 43.4223 97.555 43.4222 97.4636 43.3308ZM101.238 42.7459C101.146 42.6544 101.146 42.5051 101.238 42.4128C101.329 42.3216 101.479 42.321 101.571 42.4128C101.663 42.5051 101.664 42.6546 101.572 42.7465C101.479 42.8382 101.33 42.8381 101.238 42.7459ZM99.9413 42.9809C99.8501 42.8896 99.8496 42.7403 99.9418 42.6481C100.033 42.5566 100.183 42.5561 100.274 42.6479C100.367 42.7403 100.367 42.8897 100.275 42.9816C100.183 43.0738 100.034 43.0738 99.9413 42.9809ZM98.6781 43.1804C98.5868 43.0891 98.5858 42.9398 98.6781 42.8476C98.7693 42.7563 98.9192 42.7559 99.0109 42.8476C99.1031 42.9398 99.1035 43.0897 99.0118 43.1813C98.9196 43.2736 98.7703 43.2726 98.6781 43.1804ZM102.023 44.4674C102.171 44.615 102.171 44.8527 102.023 44.9999C101.876 45.1472 101.638 45.1477 101.491 45C101.344 44.8534 101.344 44.615 101.491 44.4677C101.638 44.3204 101.877 44.3207 102.023 44.4674ZM100.728 44.7025C100.875 44.8499 100.875 45.0874 100.728 45.2347C100.58 45.382 100.343 45.3824 100.195 45.235C100.048 45.0879 100.048 44.8496 100.195 44.7023C100.343 44.5552 100.581 44.5558 100.728 44.7025ZM99.4634 44.9026C99.611 45.0502 99.6102 45.2876 99.463 45.4349C99.316 45.5819 99.0786 45.5826 98.931 45.435C98.7843 45.2882 98.7838 45.0496 98.9307 44.9026C99.078 44.7554 99.3166 44.7559 99.4634 44.9026ZM98.2497 45.0519C98.3967 45.1989 98.397 45.4374 98.2497 45.5846C98.1025 45.7318 97.864 45.7315 97.7171 45.5846C97.5696 45.4371 97.5702 45.1995 97.7175 45.0523C97.8647 44.9051 98.1023 44.9045 98.2497 45.0519Z" fill="#B99362"/>
<path d="M10.797 48.2524C9.75117 49.2982 9.75117 50.9939 10.797 52.0397L12.2737 53.5164C12.5978 53.8405 13.1232 53.8405 13.4473 53.5164L13.5115 53.4523L17.8325 57.7733C16.1662 60.2694 16.0635 63.2359 17.7665 64.9389C18.2165 65.3889 18.7549 65.7128 19.3494 65.915C20.4896 66.3028 21.281 67.3445 21.3493 68.5469C21.4503 70.3262 22.1378 72.0162 23.4306 73.309C26.4761 76.3545 31.7261 76.0425 35.1567 72.6119C38.5872 69.1814 38.8993 63.9314 35.8537 60.8858C34.561 59.5931 32.871 58.9054 31.0916 58.8045C29.8893 58.7363 28.8475 57.9447 28.4598 56.8047C28.2576 56.2101 27.9337 55.6718 27.4837 55.2217C25.7807 53.5188 22.8142 53.6215 20.3181 55.2877L15.997 50.9667L16.0612 50.9025C16.3853 50.5785 16.3853 50.0531 16.0612 49.729L14.5845 48.2522C13.5386 47.2065 11.8429 47.2065 10.797 48.2524ZM34.0218 65.7169C34.2181 65.9134 34.3163 66.1708 34.3163 66.4283C34.3163 66.6857 34.2181 66.9432 34.0218 67.1396L29.6843 71.4771C29.2914 71.8699 28.6545 71.8699 28.2616 71.4771C27.8688 71.0841 27.8688 70.4472 28.2616 70.0543L32.5991 65.7169C32.992 65.3241 33.6289 65.3241 34.0218 65.7169ZM26.2032 59.5071C27.3496 60.6535 27.3496 62.5121 26.2032 63.6585C25.0568 64.8049 23.1982 64.8049 22.0518 63.6585C20.9054 62.5121 20.9054 60.6535 22.0518 59.5071C23.1982 58.3607 25.0568 58.3608 26.2032 59.5071Z" fill="#B99362"/>
<path fill-rule="evenodd" clip-rule="evenodd" d="M56.6442 107.624C84.7995 107.624 107.624 84.7995 107.624 56.6442C107.624 28.4888 84.7995 5.66442 56.6442 5.66442C28.4888 5.66442 5.66442 28.4888 5.66442 56.6442C5.66442 84.7995 28.4888 107.624 56.6442 107.624ZM56.6442 113.288C87.9279 113.288 113.288 87.9279 113.288 56.6442C113.288 25.3605 87.9279 0 56.6442 0C25.3605 0 0 25.3605 0 56.6442C0 87.9279 25.3605 113.288 56.6442 113.288Z" fill="#B99362"/>
</svg>
